<svg width="228" height="32" viewBox="0 0 228 32" fill="none" xmlns="http://www.w3.org/2000/svg">
<path d="M0 15.5C0 14.6716 0.671573 14 1.5 14C2.32843 14 3 14.6716 3 15.5V16.5C3 17.3284 2.32843 18 1.5 18C0.671573 18 0 17.3284 0 16.5V15.5Z" fill="#2E1805"/>
<path d="M55 15.5C55 14.6716 55.6716 14 56.5 14C57.3284 14 58 14.6716 58 15.5V16.5C58 17.3284 57.3284 18 56.5 18C55.6716 18 55 17.3284 55 16.5V15.5Z" fill="#2E1805"/>
<path d="M5 12.5C5 11.6716 5.67157 11 6.5 11C7.32843 11 8 11.6716 8 12.5V19.5C8 20.3284 7.32843 21 6.5 21C5.67157 21 5 20.3284 5 19.5V12.5Z" fill="#2E1805"/>
<path d="M60 12.5C60 11.6716 60.6716 11 61.5 11C62.3284 11 63 11.6716 63 12.5V19.5C63 20.3284 62.3284 21 61.5 21C60.6716 21 60 20.3284 60 19.5V12.5Z" fill="#2E1805"/>
<path d="M10 11.5C10 10.6716 10.6716 10 11.5 10C12.3284 10 13 10.6716 13 11.5V20.5C13 21.3284 12.3284 22 11.5 22C10.6716 22 10 21.3284 10 20.5V11.5Z" fill="#2E1805"/>
<path d="M65 11.5C65 10.6716 65.6716 10 66.5 10C67.3284 10 68 10.6716 68 11.5V20.5C68 21.3284 67.3284 22 66.5 22C65.6716 22 65 21.3284 65 20.5V11.5Z" fill="#2E1805"/>
<path d="M15 12.5C15 11.6716 15.6716 11 16.5 11C17.3284 11 18 11.6716 18 12.5V19.5C18 20.3284 17.3284 21 16.5 21C15.6716 21 15 20.3284 15 19.5V12.5Z" fill="#2E1805"/>
<path d="M70 12.5C70 11.6716 70.6716 11 71.5 11C72.3284 11 73 11.6716 73 12.5V19.5C73 20.3284 72.3284 21 71.5 21C70.6716 21 70 20.3284 70 19.5V12.5Z" fill="#2E1805"/>
<path d="M20 9.5C20 8.67157 20.6716 8 21.5 8C22.3284 8 23 8.67157 23 9.5V21.5C23 22.3284 22.3284 23 21.5 23C20.6716 23 20 22.3284 20 21.5V9.5Z" fill="#2E1805"/>
<path d="M75 9.5C75 8.67157 75.6716 8 76.5 8C77.3284 8 78 8.67157 78 9.5V21.5C78 22.3284 77.3284 23 76.5 23C75.6716 23 75 22.3284 75 21.5V9.5Z" fill="#2E1805"/>
<path d="M25 5.5C25 4.67157 25.6716 4 26.5 4C27.3284 4 28 4.67157 28 5.5V26.5C28 27.3284 27.3284 28 26.5 28C25.6716 28 25 27.3284 25 26.5V5.5Z" fill="#2E1805"/>
<path d="M80 5.5C80 4.67157 80.6716 4 81.5 4C82.3284 4 83 4.67157 83 5.5V26.5C83 27.3284 82.3284 28 81.5 28C80.6716 28 80 27.3284 80 26.5V5.5Z" fill="#2E1805"/>
<path d="M30 6.5C30 5.67157 30.6716 5 31.5 5C32.3284 5 33 5.67157 33 6.5V25.5C33 26.3284 32.3284 27 31.5 27C30.6716 27 30 26.3284 30 25.5V6.5Z" fill="#2E1805"/>
<path d="M85 6.5C85 5.67157 85.6716 5 86.5 5C87.3284 5 88 5.67157 88 6.5V25.5C88 26.3284 87.3284 27 86.5 27C85.6716 27 85 26.3284 85 25.5V6.5Z" fill="#2E1805"/>
<path d="M35 1.5C35 0.671573 35.6716 0 36.5 0C37.3284 0 38 0.671573 38 1.5V30.5C38 31.3284 37.3284 32 36.5 32C35.6716 32 35 31.3284 35 30.5V1.5Z" fill="#2E1805"/>
<path d="M90 1.5C90 0.671573 90.6716 0 91.5 0C92.3284 0 93 0.671573 93 1.5V30.5C93 31.3284 92.3284 32 91.5 32C90.6716 32 90 31.3284 90 30.5V1.5Z" fill="#2E1805"/>
<path d="M40 2.5C40 1.67157 40.6716 1 41.5 1C42.3284 1 43 1.67157 43 2.5V29.5C43 30.3284 42.3284 31 41.5 31C40.6716 31 40 30.3284 40 29.5V2.5Z" fill="#2E1805"/>
<path d="M95 2.5C95 1.67157 95.6716 1 96.5 1C97.3284 1 98 1.67157 98 2.5V29.5C98 30.3284 97.3284 31 96.5 31C95.6716 31 95 30.3284 95 29.5V2.5Z" fill="#2E1805"/>
<path d="M45 4.5C45 3.67157 45.6716 3 46.5 3C47.3284 3 48 3.67157 48 4.5V27.5C48 28.3284 47.3284 29 46.5 29C45.6716 29 45 28.3284 45 27.5V4.5Z" fill="#2E1805"/>
<path d="M100 4.5C100 3.67157 100.672 3 101.5 3C102.328 3 103 3.67157 103 4.5V27.5C103 28.3284 102.328 29 101.5 29C100.672 29 100 28.3284 100 27.5V4.5Z" fill="#2E1805"/>
<path d="M50 9.5C50 8.67157 50.6716 8 51.5 8C52.3284 8 53 8.67157 53 9.5V22.5C53 23.3284 52.3284 24 51.5 24C50.6716 24 50 23.3284 50 22.5V9.5Z" fill="#2E1805"/>
<path d="M105 9.5C105 8.67157 105.672 8 106.5 8C107.328 8 108 8.67157 108 9.5V22.5C108 23.3284 107.328 24 106.5 24C105.672 24 105 23.3284 105 22.5V9.5Z" fill="#2E1805"/>
<path d="M193 19.5C193 20.3284 192.328 21 191.5 21C190.672 21 190 20.3284 190 19.5V12.5C190 11.6716 190.672 11 191.5 11C192.328 11 193 11.6716 193 12.5V19.5Z" fill="#2E1805"/>
<path d="M188 22.5C188 23.3284 187.328 24 186.5 24C185.672 24 185 23.3284 185 22.5V10.5C185 9.67157 185.672 9 186.5 9C187.328 9 188 9.67157 188 10.5V22.5Z" fill="#2E1805"/>
<path d="M183 26.5C183 27.3284 182.328 28 181.5 28C180.672 28 180 27.3284 180 26.5V5.5C180 4.67157 180.672 4 181.5 4C182.328 4 183 4.67157 183 5.5V26.5Z" fill="#2E1805"/>
<path d="M178 25.5C178 26.3284 177.328 27 176.5 27C175.672 27 175 26.3284 175 25.5V6.5C175 5.67157 175.672 5 176.5 5C177.328 5 178 5.67157 178 6.5V25.5Z" fill="#2E1805"/>
<path d="M173 30.5C173 31.3284 172.328 32 171.5 32C170.672 32 170 31.3284 170 30.5V1.5C170 0.671574 170.672 0 171.5 0C172.328 0 173 0.671574 173 1.5V30.5Z" fill="#2E1805"/>
<path d="M168 29.5C168 30.3284 167.328 31 166.5 31C165.672 31 165 30.3284 165 29.5V2.5C165 1.67157 165.672 1 166.5 1C167.328 1 168 1.67157 168 2.5V29.5Z" fill="#2E1805"/>
<path d="M163 27.5C163 28.3284 162.328 29 161.5 29C160.672 29 160 28.3284 160 27.5V4.5C160 3.67157 160.672 3 161.5 3C162.328 3 163 3.67157 163 4.5V27.5Z" fill="#2E1805"/>
<path d="M158 22.5C158 23.3284 157.328 24 156.5 24C155.672 24 155 23.3284 155 22.5V9.5C155 8.67157 155.672 8 156.5 8C157.328 8 158 8.67157 158 9.5V22.5Z" fill="#2E1805"/>
<path d="M110 3.5C110 2.67157 110.672 2 111.5 2C112.328 2 113 2.67157 113 3.5V28.5C113 29.3284 112.328 30 111.5 30C110.672 30 110 29.3284 110 28.5V3.5Z" fill="#2E1805"/>
<path d="M115 3.5C115 2.67157 115.672 2 116.5 2C117.328 2 118 2.67157 118 3.5V28.5C118 29.3284 117.328 30 116.5 30C115.672 30 115 29.3284 115 28.5V3.5Z" fill="#2E1805"/>
<path d="M120 2.5C120 1.67157 120.672 1 121.5 1C122.328 1 123 1.67157 123 2.5V29.5C123 30.3284 122.328 31 121.5 31C120.672 31 120 30.3284 120 29.5V2.5Z" fill="#2E1805"/>
<path d="M125 1.5C125 0.671573 125.672 0 126.5 0C127.328 0 128 0.671573 128 1.5V30.5C128 31.3284 127.328 32 126.5 32C125.672 32 125 31.3284 125 30.5V1.5Z" fill="#2E1805"/>
<path d="M150 9.5C150 8.67157 150.672 8 151.5 8C152.328 8 153 8.67157 153 9.5V22.5C153 23.3284 152.328 24 151.5 24C150.672 24 150 23.3284 150 22.5V9.5Z" fill="#2E1805"/>
<path d="M145 3.5C145 2.67157 145.672 2 146.5 2C147.328 2 148 2.67157 148 3.5V28.5C148 29.3284 147.328 30 146.5 30C145.672 30 145 29.3284 145 28.5V3.5Z" fill="#2E1805"/>
<path d="M140 3.5C140 2.67157 140.672 2 141.5 2C142.328 2 143 2.67157 143 3.5V28.5C143 29.3284 142.328 30 141.5 30C140.672 30 140 29.3284 140 28.5V3.5Z" fill="#2E1805"/>
<path d="M135 2.5C135 1.67157 135.672 1 136.5 1C137.328 1 138 1.67157 138 2.5V29.5C138 30.3284 137.328 31 136.5 31C135.672 31 135 30.3284 135 29.5V2.5Z" fill="#2E1805"/>
<path d="M130 1.5C130 0.671573 130.672 0 131.5 0C132.328 0 133 0.671573 133 1.5V30.5C133 31.3284 132.328 32 131.5 32C130.672 32 130 31.3284 130 30.5V1.5Z" fill="#2E1805"/>
<path d="M130 15.5C130 14.6716 130.672 14 131.5 14C132.328 14 133 14.6716 133 15.5V16.5C133 17.3284 132.328 18 131.5 18C130.672 18 130 17.3284 130 16.5V15.5Z" fill="#2E1805"/>
<path d="M135 15.5C135 14.6716 135.672 14 136.5 14C137.328 14 138 14.6716 138 15.5V16.5C138 17.3284 137.328 18 136.5 18C135.672 18 135 17.3284 135 16.5V15.5Z" fill="#2E1805"/>
<path d="M140 15.5C140 14.6716 140.672 14 141.5 14C142.328 14 143 14.6716 143 15.5V16.5C143 17.3284 142.328 18 141.5 18C140.672 18 140 17.3284 140 16.5V15.5Z" fill="#2E1805"/>
<path d="M145 15.5C145 14.6716 145.672 14 146.5 14C147.328 14 148 14.6716 148 15.5V16.5C148 17.3284 147.328 18 146.5 18C145.672 18 145 17.3284 145 16.5V15.5Z" fill="#2E1805"/>
<path d="M150 15.5C150 14.6716 150.672 14 151.5 14C152.328 14 153 14.6716 153 15.5V16.5C153 17.3284 152.328 18 151.5 18C150.672 18 150 17.3284 150 16.5V15.5Z" fill="#2E1805"/>
<path d="M155 15.5C155 14.6716 155.672 14 156.5 14C157.328 14 158 14.6716 158 15.5V16.5C158 17.3284 157.328 18 156.5 18C155.672 18 155 17.3284 155 16.5V15.5Z" fill="#2E1805"/>
<path d="M160 15.5C160 14.6716 160.672 14 161.5 14C162.328 14 163 14.6716 163 15.5V16.5C163 17.3284 162.328 18 161.5 18C160.672 18 160 17.3284 160 16.5V15.5Z" fill="#2E1805"/>
<path d="M165 15.5C165 14.6716 165.672 14 166.5 14C167.328 14 168 14.6716 168 15.5V16.5C168 17.3284 167.328 18 166.5 18C165.672 18 165 17.3284 165 16.5V15.5Z" fill="#2E1805"/>
<path d="M170 15.5C170 14.6716 170.672 14 171.5 14C172.328 14 173 14.6716 173 15.5V16.5C173 17.3284 172.328 18 171.5 18C170.672 18 170 17.3284 170 16.5V15.5Z" fill="#2E1805"/>
<path d="M175 15.5C175 14.6716 175.672 14 176.5 14C177.328 14 178 14.6716 178 15.5V16.5C178 17.3284 177.328 18 176.5 18C175.672 18 175 17.3284 175 16.5V15.5Z" fill="#2E1805"/>
<path d="M180 15.5C180 14.6716 180.672 14 181.5 14C182.328 14 183 14.6716 183 15.5V16.5C183 17.3284 182.328 18 181.5 18C180.672 18 180 17.3284 180 16.5V15.5Z" fill="#2E1805"/>
<path d="M185 15.5C185 14.6716 185.672 14 186.5 14C187.328 14 188 14.6716 188 15.5V16.5C188 17.3284 187.328 18 186.5 18C185.672 18 185 17.3284 185 16.5V15.5Z" fill="#2E1805"/>
<path d="M190 15.5C190 14.6716 190.672 14 191.5 14C192.328 14 193 14.6716 193 15.5V16.5C193 17.3284 192.328 18 191.5 18C190.672 18 190 17.3284 190 16.5V15.5Z" fill="#2E1805"/>
<path d="M195 15.5C195 14.6716 195.672 14 196.5 14C197.328 14 198 14.6716 198 15.5V16.5C198 17.3284 197.328 18 196.5 18C195.672 18 195 17.3284 195 16.5V15.5Z" fill="#2E1805"/>
<path d="M200 15.5C200 14.6716 200.672 14 201.5 14C202.328 14 203 14.6716 203 15.5V16.5C203 17.3284 202.328 18 201.5 18C200.672 18 200 17.3284 200 16.5V15.5Z" fill="#2E1805"/>
<path d="M205 15.5C205 14.6716 205.672 14 206.5 14C207.328 14 208 14.6716 208 15.5V16.5C208 17.3284 207.328 18 206.5 18C205.672 18 205 17.3284 205 16.5V15.5Z" fill="#2E1805"/>
<path d="M210 15.5C210 14.6716 210.672 14 211.5 14C212.328 14 213 14.6716 213 15.5V16.5C213 17.3284 212.328 18 211.5 18C210.672 18 210 17.3284 210 16.5V15.5Z" fill="#2E1805"/>
<path d="M215 15.5C215 14.6716 215.672 14 216.5 14C217.328 14 218 14.6716 218 15.5V16.5C218 17.3284 217.328 18 216.5 18C215.672 18 215 17.3284 215 16.5V15.5Z" fill="#2E1805"/>
<path d="M220 15.5C220 14.6716 220.672 14 221.5 14C222.328 14 223 14.6716 223 15.5V16.5C223 17.3284 222.328 18 221.5 18C220.672 18 220 17.3284 220 16.5V15.5Z" fill="#2E1805"/>
<path d="M225 15.5C225 14.6716 225.672 14 226.5 14C227.328 14 228 14.6716 228 15.5V16.5C228 17.3284 227.328 18 226.5 18C225.672 18 225 17.3284 225 16.5V15.5Z" fill="#2E1805"/>
</svg>
