<svg width="30" height="30" viewBox="0 0 30 30" fill="none" xmlns="http://www.w3.org/2000/svg">
<path d="M18.75 11.25H17.5C16.8125 11.25 16.25 10.6875 16.25 10V3.75H6.25C4.875 3.75 3.75 4.875 3.75 6.25V23.75C3.75 25.125 4.875 26.25 6.25 26.25H23.75C25.125 26.25 26.25 25.125 26.25 23.75V13.75H20C19.3125 13.75 18.75 13.1875 18.75 12.5V11.25ZM21.25 21.25H8.75C8.63393 21.25 8.52015 21.2177 8.42142 21.1567C8.32268 21.0956 8.24289 21.0083 8.19098 20.9045C8.13907 20.8007 8.1171 20.6845 8.12753 20.5689C8.13795 20.4533 8.18036 20.3429 8.25 20.25L10.75 16.9125C11 16.575 11.5 16.575 11.75 16.9125L14.0625 20L17.3125 15.6625C17.5625 15.325 18.0625 15.325 18.3125 15.6625L21.75 20.25C21.8196 20.3429 21.8621 20.4533 21.8725 20.5689C21.8829 20.6845 21.8609 20.8007 21.809 20.9045C21.7571 21.0083 21.6773 21.0956 21.5786 21.1567C21.4798 21.2177 21.3661 21.25 21.25 21.25Z" fill="#2E1805"/>
<path d="M23.75 6.25V5C23.75 4.3125 23.1875 3.75 22.5 3.75C21.8125 3.75 21.25 4.3125 21.25 5V6.25H20C19.3125 6.25 18.75 6.8125 18.75 7.5C18.75 8.1875 19.3125 8.75 20 8.75H21.25V10C21.25 10.6875 21.8125 11.25 22.5 11.25C23.1875 11.25 23.75 10.6875 23.75 10V8.75H25C25.6875 8.75 26.25 8.1875 26.25 7.5C26.25 6.8125 25.6875 6.25 25 6.25H23.75Z" fill="black"/>
</svg>
