<svg width="23" height="23" viewBox="0 0 23 23" fill="none" xmlns="http://www.w3.org/2000/svg">
<path d="M0.999998 5C-0.104572 3.89543 -0.104573 2.10457 0.999996 0.999997C2.10457 -0.104572 3.89543 -0.104572 5 0.999997L22 18C23.1046 19.1046 23.1046 20.8954 22 22C20.8954 23.1046 19.1046 23.1046 18 22L0.999998 5Z" fill="#2E1805"/>
<path d="M18 0.999997C19.1046 -0.104572 20.8954 -0.104573 22 0.999997C23.1046 2.10457 23.1046 3.89543 22 5L5 22C3.89543 23.1046 2.10457 23.1046 0.999998 22C-0.104572 20.8954 -0.104572 19.1046 0.999998 18L18 0.999997Z" fill="#2E1805"/>
</svg>
