<svg width="25" height="20" viewBox="0 0 5 20" fill="none" xmlns="http://www.w3.org/2000/svg">
<path d="M0 10C0 10.663 0.263393 11.2989 0.732234 11.7678C1.20107 12.2366 1.83696 12.5 2.5 12.5C3.16304 12.5 3.79893 12.2366 4.26777 11.7678C4.73661 11.2989 5 10.663 5 10C5 9.33696 4.73661 8.70107 4.26777 8.23223C3.79893 7.76339 3.16304 7.5 2.5 7.5C1.83696 7.5 1.20107 7.76339 0.732234 8.23223C0.263393 8.70107 0 9.33696 0 10ZM0 2.5C0 3.16304 0.263393 3.79893 0.732234 4.26777C1.20107 4.73661 1.83696 5 2.5 5C3.16304 5 3.79893 4.73661 4.26777 4.26777C4.73661 3.79893 5 3.16304 5 2.5C5 1.83696 4.73661 1.20107 4.26777 0.732233C3.79893 0.263392 3.16304 0 2.5 0C1.83696 0 1.20107 0.263392 0.732234 0.732233C0.263393 1.20107 0 1.83696 0 2.5ZM0 17.5C0 18.163 0.263393 18.7989 0.732234 19.2678C1.20107 19.7366 1.83696 20 2.5 20C3.16304 20 3.79893 19.7366 4.26777 19.2678C4.73661 18.7989 5 18.163 5 17.5C5 16.837 4.73661 16.2011 4.26777 15.7322C3.79893 15.2634 3.16304 15 2.5 15C1.83696 15 1.20107 15.2634 0.732234 15.7322C0.263393 16.2011 0 16.837 0 17.5Z" fill="black"/>
</svg>
