<svg width="30" height="25" viewBox="0 0 30 25" fill="none" xmlns="http://www.w3.org/2000/svg">
<path d="M27.7778 3.33333H18.1482L14.2964 0.444445C13.9112 0.156842 13.4436 0.000994614 12.9629 0H6.66667C6.0775 0.000661697 5.51265 0.235001 5.09605 0.651605C4.67945 1.06821 4.44511 1.63306 4.44444 2.22222V4.44444H2.22222C1.63306 4.44511 1.06821 4.67944 0.651605 5.09605C0.235 5.51265 0.000661697 6.0775 0 6.66667V22.2222C0.000661697 22.8114 0.235 23.3762 0.651605 23.7928C1.06821 24.2094 1.63306 24.4438 2.22222 24.4444H23.4568C24.0132 24.4438 24.5467 24.2225 24.9402 23.829C25.3336 23.4356 25.5549 22.9021 25.5556 22.3457V20H27.9013C28.4577 19.9994 28.9911 19.7781 29.3846 19.3846C29.7781 18.9911 29.9994 18.4577 30 17.9013V5.55556C29.9993 4.96639 29.765 4.40154 29.3484 3.98494C28.9318 3.56833 28.3669 3.334 27.7778 3.33333ZM27.7778 17.7778H25.5556V10C25.5549 9.41083 25.3206 8.84599 24.904 8.42938C24.4873 8.01278 23.9225 7.77844 23.3333 7.77778H13.7038L9.85194 4.88889C9.46677 4.60129 8.99918 4.44544 8.51847 4.44444H6.66667V2.22222H12.9629L16.8147 5.11111C17.1999 5.39871 17.6675 5.55456 18.1482 5.55556H27.7778V17.7778Z" fill="black"/>
</svg>
