<svg width="26" height="26" viewBox="0 0 26 26" fill="none" xmlns="http://www.w3.org/2000/svg">
<path d="M24.9167 20.5833H22.0317C21.5627 19.0223 20.1283 17.875 18.4167 17.875C16.705 17.875 15.2717 19.0223 14.8016 20.5833H1.08332C0.485316 20.5833 0 21.0687 0 21.6667C0 22.2647 0.485316 22.75 1.08332 22.75H14.8016C15.2706 24.3111 16.705 25.4583 18.4166 25.4583C20.1283 25.4583 21.5616 24.3111 22.0317 22.75H24.9166C25.5157 22.75 25.9999 22.2647 25.9999 21.6667C25.9999 21.0687 25.5157 20.5833 24.9167 20.5833ZM18.4167 23.2917C17.5208 23.2917 16.7917 22.5626 16.7917 21.6667C16.7917 20.7707 17.5208 20.0417 18.4167 20.0417C19.3126 20.0417 20.0417 20.7707 20.0417 21.6667C20.0417 22.5626 19.3126 23.2917 18.4167 23.2917Z" fill="black"/>
<path d="M24.9167 3.25H22.0317C21.5616 1.68894 20.1283 0.541687 18.4167 0.541687C16.705 0.541687 15.2717 1.68894 14.8016 3.25H1.08332C0.485316 3.25 0 3.73532 0 4.33332C0 4.93132 0.485316 5.41664 1.08332 5.41664H14.8016C15.2717 6.97775 16.705 8.125 18.4167 8.125C20.1284 8.125 21.5616 6.97775 22.0317 5.41669H24.9167C25.5157 5.41669 26 4.93137 26 4.33337C26 3.73537 25.5157 3.25 24.9167 3.25ZM18.4167 5.95832C17.5208 5.95832 16.7917 5.22925 16.7917 4.33332C16.7917 3.43739 17.5208 2.70832 18.4167 2.70832C19.3126 2.70832 20.0417 3.43739 20.0417 4.33332C20.0417 5.22925 19.3126 5.95832 18.4167 5.95832Z" fill="black"/>
<path d="M24.9167 11.9167H11.1984C10.7282 10.3556 9.295 9.20837 7.58337 9.20837C5.87173 9.20837 4.43843 10.3556 3.9683 11.9167H1.08332C0.485316 11.9167 0 12.402 0 13C0 13.598 0.485316 14.0833 1.08332 14.0833H3.96825C4.43843 15.6444 5.87168 16.7917 7.58332 16.7917C9.29495 16.7917 10.7283 15.6444 11.1984 14.0833H24.9166C25.5157 14.0833 25.9999 13.598 25.9999 13C26 12.402 25.5157 11.9167 24.9167 11.9167ZM7.58332 14.625C6.68738 14.625 5.95832 13.8959 5.95832 13C5.95832 12.1041 6.68738 11.375 7.58332 11.375C8.47925 11.375 9.20832 12.1041 9.20832 13C9.20832 13.8959 8.47925 14.625 7.58332 14.625Z" fill="black"/>
</svg>
