<svg width="28" height="25" viewBox="0 0 28 25" fill="none" xmlns="http://www.w3.org/2000/svg">
<path d="M27.2313 5.12325C26.7983 4.12069 26.1739 3.21218 25.3932 2.44858C24.6119 1.6827 23.6907 1.07406 22.6798 0.655771C21.6315 0.220306 20.5071 -0.00259 19.372 2.27052e-05C17.7795 2.27052e-05 16.2257 0.436111 14.8754 1.25983C14.5524 1.45688 14.2455 1.67331 13.9548 1.90912C13.6641 1.67331 13.3572 1.45688 13.0342 1.25983C11.6839 0.436111 10.1302 2.27052e-05 8.53763 2.27052e-05C7.39088 2.27052e-05 6.27966 0.219682 5.22982 0.655771C4.21551 1.07571 3.30134 1.67977 2.51639 2.44858C1.73465 3.21132 1.11018 4.12005 0.678359 5.12325C0.22935 6.16664 0 7.27462 0 8.41491C0 9.4906 0.219659 10.6115 0.655747 11.7518C1.02077 12.7047 1.54407 13.6932 2.21274 14.6914C3.27227 16.271 4.72913 17.9184 6.53808 19.5885C9.53578 22.3568 12.5044 24.2691 12.6304 24.3467L13.396 24.8377C13.7351 25.0541 14.1712 25.0541 14.5104 24.8377L15.276 24.3467C15.402 24.2659 18.3674 22.3568 21.3683 19.5885C23.1773 17.9184 24.6341 16.271 25.6936 14.6914C26.3623 13.6932 26.8888 12.7047 27.2506 11.7518C27.6867 10.6115 27.9064 9.4906 27.9064 8.41491C27.9096 7.27462 27.6803 6.16664 27.2313 5.12325Z" fill="#E64322"/>
</svg>
