<svg width="26" height="26" viewBox="0 0 26 26" fill="none" xmlns="http://www.w3.org/2000/svg">
<path d="M21.9815 2.97663C19.1296 1.45236 15.368 1.91529 13.0042 4.04215C10.6289 1.91699 6.86131 1.45901 4.01894 2.97663C1.54175 4.29009 0 6.80548 0 9.53664C0 10.3187 0.129923 11.0957 0.359762 11.7651C1.57222 17.0132 9.35582 23.9195 13.0042 23.9195C16.6446 23.9195 24.4224 17.0126 25.6139 11.8541C25.8695 11.0949 25.9998 10.3197 25.9998 9.53587C26 6.80548 24.4596 4.28916 21.9815 2.97663ZM23.8434 11.3522C22.7153 16.2363 15.3651 22.078 13.0042 22.078C10.3768 22.078 3.21806 15.9582 2.13042 11.2634C1.93616 10.6971 1.84274 10.1174 1.84274 9.53773C1.84274 7.48974 3.00678 5.59705 4.88014 4.60345C5.75248 4.13619 6.74484 3.89506 7.74803 3.89506C9.51374 3.89506 11.1758 4.64413 12.3096 5.95341L13.0122 6.75754L13.7044 5.95341C15.4699 3.9045 18.7132 3.31536 21.1239 4.60345C22.9972 5.59705 24.1614 7.48974 24.1614 9.53773C24.1576 10.1163 24.0635 10.6962 23.8434 11.3522ZM23.1241 9.53664C23.1241 10.0183 23.0432 10.5024 22.8822 10.9788C22.8164 11.1726 22.6409 11.287 22.4454 11.287C22.3963 11.287 22.3479 11.2836 22.2981 11.2668C22.0562 11.1854 21.9291 10.9231 22.0104 10.6827C22.1399 10.3002 22.2094 9.91249 22.2094 9.53664C22.2094 8.16147 21.4284 6.89442 20.172 6.23259C19.5763 5.91443 18.9314 5.75094 18.2546 5.75094C17.9971 5.75094 17.7968 5.54864 17.7968 5.29312C17.7968 5.03745 17.9971 4.83607 18.2546 4.83607C19.0807 4.83607 19.8709 5.02987 20.6037 5.42011C22.1575 6.24341 23.1241 7.8195 23.1241 9.53664Z" fill="black"/>
</svg>
