<svg width="26" height="26" viewBox="0 0 26 26" fill="none" xmlns="http://www.w3.org/2000/svg">
<path d="M20.3125 8.2875V3.45312C20.3122 3.18386 20.2051 2.92571 20.0147 2.73531C19.8243 2.54491 19.5661 2.43781 19.2969 2.4375H6.70312C6.43386 2.43781 6.17571 2.54491 5.98531 2.73531C5.79491 2.92571 5.68781 3.18386 5.6875 3.45312V8.2875L0.8125 11.7694V25.1875H25.1875V11.7694L20.3125 8.2875ZM23.0384 12.2315L20.3125 14.0136V10.2842L23.0384 12.2315ZM7.3125 4.0625H18.6875V15.0761L15.7845 16.9742L13.4193 15.7477L10.8414 16.9922L7.3125 14.8497V4.0625ZM13.3932 17.5647L23.5625 22.8377V23.5625H2.4375V22.8537L13.3932 17.5647ZM2.4375 13.7909L9.09716 17.8344L2.4375 21.0493V13.7909ZM17.4406 17.8331L23.5625 13.8301V21.0072L17.4406 17.8331ZM5.6875 10.2842V13.8633L2.97913 12.2187L5.6875 10.2842Z" fill="#2E1805"/>
</svg>
