<svg width="26" height="29" viewBox="0 0 26 29" fill="none" xmlns="http://www.w3.org/2000/svg">
<path d="M25.6828 15.2343L19.9969 21.5285C19.7934 21.7512 19.5185 21.8756 19.2323 21.8747C18.9461 21.8737 18.6719 21.7475 18.4695 21.5236C18.2671 21.2997 18.153 20.9963 18.1521 20.6796C18.1512 20.3629 18.2636 20.0586 18.4647 19.8333L22.3019 15.5856H9.75004C9.46272 15.5856 9.18717 15.4593 8.984 15.2345C8.78084 15.0096 8.6667 14.7047 8.6667 14.3867C8.6667 14.0688 8.78084 13.7638 8.984 13.539C9.18717 13.3141 9.46272 13.1878 9.75004 13.1878H22.3019L18.4647 8.94015C18.2636 8.71482 18.1512 8.41059 18.1521 8.09388C18.153 7.77718 18.2671 7.47374 18.4695 7.24982C18.6719 7.02591 18.9461 6.89971 19.2323 6.89879C19.5185 6.89787 19.7934 7.02231 19.9969 7.24492L25.6828 13.5391C25.8859 13.7639 26 14.0688 26 14.3867C26 14.7046 25.8859 15.0095 25.6828 15.2343ZM9.75004 26.3757H2.16667V2.39779H9.75004C10.0374 2.39779 10.3129 2.27148 10.5161 2.04664C10.7192 1.8218 10.8334 1.51686 10.8334 1.19889C10.8334 0.880928 10.7192 0.575984 10.5161 0.351148C10.3129 0.126312 10.0374 0 9.75004 0H2.16667C1.59223 0.000713974 1.04151 0.253567 0.635317 0.703085C0.229127 1.1526 0.000645157 1.76207 0 2.39779V26.3757C0.000645157 27.0114 0.229127 27.6209 0.635317 28.0704C1.04151 28.5199 1.59223 28.7727 2.16667 28.7735H9.75004C10.0374 28.7735 10.3129 28.6471 10.5161 28.4223C10.7192 28.1975 10.8334 27.8925 10.8334 27.5746C10.8334 27.2566 10.7192 26.9517 10.5161 26.7268C10.3129 26.502 10.0374 26.3757 9.75004 26.3757Z" fill="#E67E22"/>
</svg>
