<svg width="26" height="26" viewBox="0 0 26 26" fill="none" xmlns="http://www.w3.org/2000/svg">
<path d="M23.4685 9.59218C22.8989 8.23258 22.0701 6.99679 21.0285 5.9537C19.99 4.9088 18.7563 4.07804 17.3976 3.50859C16.0058 2.9224 14.5103 2.62192 13 2.62499H12.9492C11.4131 2.63261 9.92771 2.9373 8.52869 3.53652C7.18164 4.1118 5.95959 4.94404 4.93084 5.98671C3.8993 7.02746 3.08005 8.25892 2.51873 9.61249C1.93605 11.0201 1.64081 12.5299 1.65037 14.0533C1.65799 15.8154 2.07947 17.5648 2.86658 19.1289V22.9883C2.86658 23.6332 3.38963 24.1562 4.03201 24.1562H7.88631C9.45767 24.9492 11.1917 25.3664 12.9517 25.375H13.0051C14.5234 25.375 15.9935 25.0805 17.3799 24.5041C18.7317 23.9414 19.9607 23.1204 20.998 22.0869C22.0441 21.0484 22.8668 19.8348 23.4431 18.4814C24.0398 17.0799 24.3445 15.5894 24.3521 14.0508C24.3572 12.5045 24.0576 11.0039 23.4685 9.59218ZM7.93201 15.2187C7.2617 15.2187 6.7158 14.6728 6.7158 14C6.7158 13.3271 7.2617 12.7812 7.93201 12.7812C8.60232 12.7812 9.14822 13.3271 9.14822 14C9.14822 14.6728 8.60486 15.2187 7.93201 15.2187ZM13 15.2187C12.3297 15.2187 11.7838 14.6728 11.7838 14C11.7838 13.3271 12.3297 12.7812 13 12.7812C13.6703 12.7812 14.2162 13.3271 14.2162 14C14.2162 14.6728 13.6703 15.2187 13 15.2187ZM18.0679 15.2187C17.3976 15.2187 16.8517 14.6728 16.8517 14C16.8517 13.3271 17.3976 12.7812 18.0679 12.7812C18.7383 12.7812 19.2842 13.3271 19.2842 14C19.2842 14.6728 18.7383 15.2187 18.0679 15.2187Z" fill="black"/>
</svg>
