<svg width="26" height="26" viewBox="0 0 26 26" fill="none" xmlns="http://www.w3.org/2000/svg">
<path d="M8.20001 4.8C8.20001 3.52696 8.70573 2.30606 9.6059 1.40589C10.5061 0.505713 11.727 0 13 0C14.2731 0 15.494 0.505713 16.3941 1.40589C17.2943 2.30606 17.8 3.52696 17.8 4.8V12.8C17.8 14.073 17.2943 15.2939 16.3941 16.1941C15.494 17.0943 14.2731 17.6 13 17.6C11.727 17.6 10.5061 17.0943 9.6059 16.1941C8.70573 15.2939 8.20001 14.073 8.20001 12.8V4.8Z" fill="black"/>
<path d="M5.8 10.4C6.01217 10.4 6.21566 10.4843 6.36569 10.6343C6.51571 10.7843 6.6 10.9878 6.6 11.2V12.8C6.6 14.4974 7.27428 16.1252 8.47452 17.3255C9.67475 18.5257 11.3026 19.2 13 19.2C14.6974 19.2 16.3253 18.5257 17.5255 17.3255C18.7257 16.1252 19.4 14.4974 19.4 12.8V11.2C19.4 10.9878 19.4843 10.7843 19.6343 10.6343C19.7843 10.4843 19.9878 10.4 20.2 10.4C20.4122 10.4 20.6157 10.4843 20.7657 10.6343C20.9157 10.7843 21 10.9878 21 11.2V12.8C21 14.7832 20.2634 16.6958 18.933 18.1666C17.6026 19.6374 15.7733 20.5617 13.8 20.76V24H18.6C18.8122 24 19.0157 24.0843 19.1657 24.2343C19.3157 24.3843 19.4 24.5878 19.4 24.8C19.4 25.0122 19.3157 25.2157 19.1657 25.3657C19.0157 25.5157 18.8122 25.6 18.6 25.6H7.4C7.18783 25.6 6.98434 25.5157 6.83431 25.3657C6.68429 25.2157 6.6 25.0122 6.6 24.8C6.6 24.5878 6.68429 24.3843 6.83431 24.2343C6.98434 24.0843 7.18783 24 7.4 24H12.2V20.76C10.2267 20.5617 8.3974 19.6374 7.06701 18.1666C5.73661 16.6958 4.99998 14.7832 5 12.8V11.2C5 10.9878 5.08429 10.7843 5.23431 10.6343C5.38434 10.4843 5.58783 10.4 5.8 10.4Z" fill="black"/>
</svg>
