<svg width="26" height="26" viewBox="0 0 26 26" fill="none" xmlns="http://www.w3.org/2000/svg">
<path d="M5.8125 10.5625C6.02799 10.5625 6.23465 10.6481 6.38702 10.8005C6.5394 10.9528 6.625 11.1595 6.625 11.375V13C6.625 14.7239 7.30982 16.3772 8.52881 17.5962C9.74779 18.8152 11.4011 19.5 13.125 19.5C14.8489 19.5 16.5022 18.8152 17.7212 17.5962C18.9402 16.3772 19.625 14.7239 19.625 13V11.375C19.625 11.1595 19.7106 10.9528 19.863 10.8005C20.0153 10.6481 20.222 10.5625 20.4375 10.5625C20.653 10.5625 20.8597 10.6481 21.012 10.8005C21.1644 10.9528 21.25 11.1595 21.25 11.375V13C21.25 15.0142 20.5019 16.9567 19.1507 18.4505C17.7995 19.9443 15.9416 20.883 13.9375 21.0844V24.375H18.8125C19.028 24.375 19.2347 24.4606 19.387 24.613C19.5394 24.7653 19.625 24.972 19.625 25.1875C19.625 25.403 19.5394 25.6097 19.387 25.762C19.2347 25.9144 19.028 26 18.8125 26H7.4375C7.22201 26 7.01535 25.9144 6.86298 25.762C6.7106 25.6097 6.625 25.403 6.625 25.1875C6.625 24.972 6.7106 24.7653 6.86298 24.613C7.01535 24.4606 7.22201 24.375 7.4375 24.375H12.3125V21.0844C10.3084 20.883 8.45048 19.9443 7.0993 18.4505C5.74812 16.9567 4.99997 15.0142 5 13V11.375C5 11.1595 5.0856 10.9528 5.23798 10.8005C5.39035 10.6481 5.59701 10.5625 5.8125 10.5625Z" fill="black"/>
<path d="M16.375 13C16.375 13.862 16.0326 14.6886 15.4231 15.2981C14.8136 15.9076 13.987 16.25 13.125 16.25C12.263 16.25 11.4364 15.9076 10.8269 15.2981C10.2174 14.6886 9.875 13.862 9.875 13V4.875C9.875 4.01305 10.2174 3.1864 10.8269 2.5769C11.4364 1.96741 12.263 1.625 13.125 1.625C13.987 1.625 14.8136 1.96741 15.4231 2.5769C16.0326 3.1864 16.375 4.01305 16.375 4.875V13ZM13.125 0C11.8321 0 10.5921 0.513615 9.67785 1.42785C8.76361 2.34209 8.25 3.58207 8.25 4.875V13C8.25 14.2929 8.76361 15.5329 9.67785 16.4471C10.5921 17.3614 11.8321 17.875 13.125 17.875C14.4179 17.875 15.6579 17.3614 16.5721 16.4471C17.4864 15.5329 18 14.2929 18 13V4.875C18 3.58207 17.4864 2.34209 16.5721 1.42785C15.6579 0.513615 14.4179 0 13.125 0V0Z" fill="black"/>
</svg>
