<svg width="171" height="34" viewBox="0 0 171 34" fill="none" xmlns="http://www.w3.org/2000/svg">
<path d="M13.1875 33V9.95068H13.0117C12.0303 16.0591 11.4004 19.8091 11.1221 21.2007L8.63916 33H0.992676L7.78223 0.875977H19.1641V23.6836H19.3398L29.8428 0.875977H41.4004L34.5229 33H26.8105L29.3813 20.937C30.1138 17.5972 30.9048 14.4038 31.7544 11.3569L32.084 9.95068H31.9082L21.3174 33H13.1875Z" fill="black"/>
<path d="M73.041 0.875977L68.6685 21.3545C67.8042 25.4707 66.1562 28.5176 63.7246 30.4951C61.293 32.458 57.9897 33.4395 53.8149 33.4395C51.8521 33.4395 50.1162 33.0366 48.6074 32.231C47.1133 31.4253 45.9561 30.2974 45.1357 28.8472C44.3301 27.397 43.9272 25.7783 43.9272 23.9912C43.9272 23.0537 44.0151 22.1089 44.1909 21.1567L48.5635 0.875977H57.1548L52.8701 20.937C52.665 21.9331 52.5625 22.7754 52.5625 23.4639C52.5625 25.3242 53.4487 26.2544 55.2212 26.2544C56.5981 26.2544 57.6748 25.7856 58.4512 24.8481C59.2422 23.896 59.8428 22.4458 60.2529 20.4976L64.4497 0.875977H73.041Z" fill="black"/>
<path d="M92.3989 24.145C92.3989 25.9907 91.9155 27.6387 90.9487 29.0889C89.9966 30.5244 88.6855 31.6084 87.0156 32.3408C85.3457 33.0732 83.3755 33.4395 81.105 33.4395C79.8159 33.4395 78.5488 33.3149 77.3037 33.0659C76.0732 32.8169 74.8208 32.3921 73.5464 31.7915V29.3965C75.9341 30.7441 78.4829 31.418 81.1929 31.418C83.9468 31.418 86.1074 30.7881 87.6748 29.5283C89.2568 28.2539 90.0479 26.5474 90.0479 24.4087C90.0479 23.5151 89.9233 22.7534 89.6743 22.1235C89.4253 21.479 89.0371 20.9004 88.5098 20.3877C87.9971 19.875 87.3306 19.377 86.5103 18.8936C85.7046 18.4102 84.7451 17.8608 83.6318 17.2456C81.4346 16.1323 79.8965 14.9312 79.0176 13.6421C78.1533 12.353 77.7212 10.8442 77.7212 9.11572C77.7212 7.38721 78.1533 5.87109 79.0176 4.56738C79.8818 3.24902 81.0903 2.23096 82.6431 1.51318C84.1958 0.780762 85.9316 0.414551 87.8506 0.414551C89.3008 0.414551 90.6191 0.546387 91.8057 0.810059C92.9922 1.05908 94.2227 1.49854 95.4971 2.12842L94.7939 4.19385C93.8271 3.60791 92.7139 3.14648 91.4541 2.80957C90.209 2.47266 89.0078 2.3042 87.8506 2.3042C85.4629 2.3042 83.5586 2.91211 82.1377 4.12793C80.7314 5.3291 80.0283 6.92578 80.0283 8.91797C80.0283 10.4268 80.3872 11.6719 81.105 12.6533C81.8228 13.6348 83.1558 14.6089 85.104 15.5757C87.3599 16.7329 88.9199 17.6851 89.7842 18.4321C90.6631 19.1792 91.3149 20.0068 91.7397 20.915C92.1792 21.8232 92.3989 22.8999 92.3989 24.145Z" fill="black"/>
<path d="M113.361 33H97.3867L104.198 0.875977H120.172L119.711 2.94141H106L103.429 15.0923H116.393L115.932 17.1577H103.012L100.045 30.9346H113.822L113.361 33Z" fill="black"/>
<path d="M136.828 33H120.854L127.665 0.875977H143.639L143.178 2.94141H129.467L126.896 15.0923H139.86L139.398 17.1577H126.479L123.512 30.9346H137.289L136.828 33Z" fill="black"/>
<path d="M163.59 33H161.151L153.637 15.6855L149.462 19.0474L146.583 33H144.32L151.132 0.875977H153.373L149.901 16.7622L152.824 14.1035L167.765 0.875977H170.797L155.438 14.2793L163.59 33Z" fill="black"/>
</svg>
