<svg width="20" height="25" viewBox="0 0 20 25" fill="none" xmlns="http://www.w3.org/2000/svg">
<path d="M9.39125 0.0595314C9.24946 0.00643895 9.09692 -0.0115229 8.94668 0.0071824C8.79643 0.0258877 8.65296 0.0807033 8.52851 0.166942C8.40407 0.25318 8.30236 0.368275 8.23209 0.502384C8.16182 0.636494 8.12508 0.785627 8.125 0.937031V16.0958C7.25878 15.4022 6.18647 15.0166 5.07696 14.9995C3.96744 14.9824 2.88376 15.3349 1.99661 16.0014C1.10946 16.668 0.469235 17.6107 0.176781 18.6811C-0.115673 19.7515 -0.043742 20.8888 0.381246 21.9139C0.806234 22.9389 1.56013 23.7934 2.52419 24.3429C3.48826 24.8924 4.60771 25.1055 5.70623 24.9488C6.80475 24.792 7.81993 24.2743 8.59187 23.4772C9.3638 22.68 9.84863 21.6488 9.97 20.5458C9.98981 20.4694 9.99989 20.3909 10 20.312V8.53953L18.7337 11.8145C18.8755 11.8676 19.0281 11.8856 19.1783 11.8669C19.3286 11.8482 19.472 11.7934 19.5965 11.7071C19.7209 11.6209 19.8226 11.5058 19.8929 11.3717C19.9632 11.2376 19.9999 11.0884 20 10.937V6.85328C20.0002 6.02608 19.7479 5.21852 19.2768 4.53858C18.8057 3.85863 18.1383 3.33869 17.3638 3.04828L9.39125 0.0595314Z" fill="black"/>
</svg>
