<svg width="26" height="27" viewBox="0 0 26 27" fill="none" xmlns="http://www.w3.org/2000/svg">
<path d="M25.6784 11.0349L22.7723 10.1674C22.5713 9.46585 22.295 8.78813 21.9481 8.14609L23.3708 5.48282C23.4242 5.38229 23.4438 5.26723 23.4266 5.15471C23.4094 5.04219 23.3564 4.93822 23.2754 4.85821L21.2021 2.77618C21.122 2.69521 21.0181 2.6422 20.9056 2.62501C20.793 2.60782 20.678 2.62737 20.5774 2.68075L17.9315 4.0948C17.2832 3.73102 16.5965 3.44008 15.8842 3.22729L15.0167 0.355814C14.98 0.249991 14.9107 0.15854 14.8187 0.0946241C14.7267 0.0307081 14.6168 -0.00237633 14.5048 0.000132876H11.5726C11.46 0.000657352 11.3504 0.037119 11.2599 0.104211C11.1694 0.171304 11.1027 0.265525 11.0695 0.373164L10.202 3.23596C9.48368 3.44762 8.79119 3.73858 8.13729 4.10348L5.53474 2.6981C5.43421 2.64472 5.31915 2.62517 5.20663 2.64236C5.09411 2.65955 4.99013 2.71256 4.91013 2.79353L2.80207 4.84954C2.72111 4.92954 2.66809 5.03352 2.6509 5.14604C2.63371 5.25856 2.65326 5.37362 2.70665 5.47415L4.11202 8.07669C3.74771 8.72784 3.45676 9.4174 3.2445 10.1327L0.373031 11.0002C0.265393 11.0335 0.171171 11.1002 0.104078 11.1907C0.0369861 11.2812 0.000524476 11.3907 0 11.5034V14.4356C0.000524476 14.5482 0.0369861 14.6578 0.104078 14.7483C0.171171 14.8388 0.265393 14.9055 0.373031 14.9387L3.26185 15.8062C3.47643 16.5096 3.76733 17.1874 4.12937 17.8276L2.70665 20.5515C2.65326 20.6521 2.63371 20.7671 2.6509 20.8797C2.66809 20.9922 2.72111 21.0962 2.80207 21.1762L4.87543 23.2495C4.95543 23.3305 5.05941 23.3835 5.17193 23.4007C5.28445 23.4179 5.39951 23.3983 5.50004 23.3449L8.18066 21.9135C8.81478 22.2557 9.48368 22.5291 10.1759 22.729L11.0435 25.6525C11.0767 25.7602 11.1434 25.8544 11.2339 25.9215C11.3244 25.9886 11.434 26.025 11.5466 26.0256H14.4788C14.5915 26.025 14.701 25.9886 14.7915 25.9215C14.882 25.8544 14.9487 25.7602 14.982 25.6525L15.8495 22.7203C16.5358 22.5194 17.1989 22.246 17.8274 21.9049L20.5254 23.3449C20.6259 23.3983 20.741 23.4179 20.8535 23.4007C20.966 23.3835 21.07 23.3305 21.15 23.2495L23.2234 21.1762C23.3043 21.0962 23.3573 20.9922 23.3745 20.8797C23.3917 20.7671 23.3722 20.6521 23.3188 20.5515L21.8787 17.8623C22.2234 17.2313 22.4997 16.5653 22.7029 15.8756L25.6264 15.0081C25.734 14.9749 25.8282 14.9082 25.8953 14.8177C25.9624 14.7272 25.9989 14.6176 25.9994 14.505V11.5467C26.0045 11.4389 25.9765 11.332 25.9191 11.2405C25.8618 11.149 25.7778 11.0773 25.6784 11.0349ZM13.0387 17.7842C12.0951 17.7842 11.1726 17.5043 10.3879 16.9801C9.60329 16.4558 8.99174 15.7106 8.63061 14.8388C8.26948 13.9669 8.17499 13.0076 8.35909 12.082C8.54319 11.1565 8.99762 10.3063 9.6649 9.63901C10.3322 8.97173 11.1824 8.5173 12.1079 8.3332C13.0334 8.1491 13.9928 8.24359 14.8647 8.60472C15.7365 8.96585 16.4817 9.5774 17.006 10.362C17.5302 11.1467 17.8101 12.0692 17.8101 13.0128C17.8101 14.2783 17.3074 15.4919 16.4126 16.3867C15.5178 17.2815 14.3042 17.7842 13.0387 17.7842Z" fill="black"/>
</svg>
