<svg width="26" height="26" viewBox="0 0 26 26" fill="none" xmlns="http://www.w3.org/2000/svg">
<path d="M13.5 8C10.4357 8 8 10.4357 8 13.5C8 16.5643 10.4357 19 13.5 19C16.5643 19 19 16.5643 19 13.5C19 10.4357 16.5643 8 13.5 8ZM13.5 17.4286C11.3 17.4286 9.57143 15.7 9.57143 13.5C9.57143 11.3 11.3 9.57143 13.5 9.57143C15.7 9.57143 17.4286 11.3 17.4286 13.5C17.4286 15.7 15.7 17.4286 13.5 17.4286Z" fill="black"/>
<path d="M25.025 10.3187L22.75 9.5875L22.2625 8.36875L23.4 6.25625C23.6437 5.76875 23.5625 5.11875 23.1562 4.7125L21.2063 2.7625C20.8 2.35625 20.15 2.275 19.6625 2.51875L17.55 3.65625L16.3313 3.16875L15.6 0.89375C15.4375 0.40625 14.95 0 14.3813 0H11.6187C11.05 0 10.5625 0.40625 10.4812 0.975L9.75 3.25C9.2625 3.33125 8.85625 3.49375 8.45 3.7375L6.3375 2.6C5.85 2.35625 5.2 2.4375 4.79375 2.84375L2.84375 4.79375C2.4375 5.2 2.35625 5.85 2.6 6.3375L3.65625 8.36875C3.49375 8.775 3.33125 9.2625 3.16875 9.66875L0.89375 10.4C0.40625 10.5625 0 11.05 0 11.6187V14.3813C0 14.95 0.40625 15.4375 0.975 15.6L3.25 16.3313L3.7375 17.55L2.6 19.6625C2.35625 20.15 2.4375 20.8 2.84375 21.2063L4.79375 23.1562C5.2 23.5625 5.85 23.6437 6.3375 23.4L8.45 22.2625L9.66875 22.75L10.4 25.1063C10.5625 25.5938 11.05 26 11.6187 26H14.3813C14.95 26 15.4375 25.5938 15.6 25.1063L16.3313 22.75L17.55 22.2625L19.6625 23.4C20.15 23.6437 20.8 23.5625 21.2063 23.1562L23.1562 21.2063C23.5625 20.8 23.6437 20.15 23.4 19.6625L22.2625 17.55L22.75 16.3313L25.1063 15.6C25.5938 15.4375 26 14.95 26 14.3813V11.6187C26 11.05 25.5938 10.4812 25.025 10.3187ZM24.375 14.1375L21.45 15.0312L21.3687 15.4375L20.6375 17.1438L20.3938 17.55L21.8562 20.2312L20.2312 21.8562L17.55 20.3938L17.1438 20.6375C16.575 20.9625 16.0063 21.2062 15.4375 21.3687L15.0312 21.45L14.1375 24.375H11.8625L10.9688 21.45L10.5625 21.3687L8.85625 20.6375L8.45 20.3938L5.76875 21.8562L4.14375 20.2312L5.60625 17.55L5.3625 17.1438C5.0375 16.575 4.79375 16.0063 4.63125 15.4375L4.55 15.0312L1.625 14.1375V11.8625L4.3875 11.05L4.55 10.6438C4.7125 9.99375 4.95625 9.425 5.28125 8.85625L5.525 8.45L4.14375 5.76875L5.76875 4.14375L8.36875 5.60625L8.775 5.3625C9.34375 5.0375 9.9125 4.79375 10.5625 4.63125L10.9688 4.46875L11.8625 1.625H14.1375L15.0312 4.46875L15.4375 4.63125C16.0063 4.79375 16.575 5.0375 17.1438 5.3625L17.55 5.60625L20.2312 4.14375L21.8562 5.76875L20.3938 8.45L20.6375 8.85625C20.9625 9.425 21.2062 9.99375 21.3687 10.5625L21.45 10.9688L24.375 11.8625V14.1375Z" fill="black"/>
</svg>
