<svg width="21" height="20" viewBox="0 0 21 20" fill="none" xmlns="http://www.w3.org/2000/svg">
<path d="M8.93356 0.930632C9.07131 0.651302 9.28448 0.416097 9.54896 0.251631C9.81345 0.0871642 10.1187 0 10.4301 0C10.7416 0 11.0468 0.0871642 11.3113 0.251631C11.5758 0.416097 11.7889 0.651302 11.9267 0.930632L14.2461 5.63205L19.4314 6.38294C19.7397 6.4277 20.0293 6.55785 20.2674 6.75865C20.5055 6.95946 20.6827 7.2229 20.7788 7.51917C20.875 7.81544 20.8863 8.13271 20.8115 8.43508C20.7366 8.73744 20.5787 9.01283 20.3555 9.23007L16.6031 12.8865L17.4896 18.051C17.5418 18.3576 17.5073 18.6727 17.39 18.9608C17.2727 19.2488 17.0772 19.4983 16.8256 19.6812C16.574 19.864 16.2763 19.9729 15.9661 19.9956C15.6559 20.0182 15.3455 19.9537 15.07 19.8093L10.4291 17.371L5.79024 19.8093C5.51475 19.9537 5.20439 20.0182 4.89418 19.9956C4.58397 19.9729 4.28627 19.864 4.03466 19.6812C3.78305 19.4983 3.58755 19.2488 3.47023 18.9608C3.35291 18.6727 3.31844 18.3576 3.3707 18.051L4.25508 12.8865L0.502711 9.22799C0.280064 9.01053 0.122673 8.73513 0.0483194 8.43291C-0.0260342 8.1307 -0.0143865 7.81371 0.0819466 7.51777C0.17828 7.22183 0.355458 6.95873 0.593464 6.75819C0.83147 6.55765 1.12082 6.42768 1.42881 6.38294L6.61414 5.62996L8.93147 0.930632H8.93356ZM10.4312 2.6118L8.38708 6.75004C8.26744 6.99205 8.09088 7.20141 7.87254 7.36017C7.6542 7.51893 7.4006 7.62235 7.1335 7.66154L2.56558 8.32483L5.87159 11.5453C6.06526 11.7342 6.21012 11.9672 6.29369 12.2245C6.37726 12.4818 6.39704 12.7555 6.35133 13.0221L5.57123 17.5691L9.65525 15.4228C9.89457 15.2971 10.1608 15.2315 10.4312 15.2315C10.7015 15.2315 10.9678 15.2971 11.2071 15.4228L15.2911 17.5712L14.511 13.0242C14.4649 12.7572 14.4846 12.4831 14.5681 12.2255C14.6517 11.9678 14.7968 11.7344 14.9908 11.5453L18.2947 8.32483L13.7288 7.66154C13.4614 7.62266 13.2073 7.5194 12.9886 7.36062C12.7699 7.20184 12.593 6.99231 12.4732 6.75004L10.4291 2.6118H10.4312Z" fill="#F7E85D"/>
</svg>
