<svg width="18" height="20" viewBox="0 0 18 20" fill="none" xmlns="http://www.w3.org/2000/svg">
<path d="M5.33335 7.33333C5.51016 7.33333 5.67973 7.40357 5.80476 7.52859C5.92978 7.65361 6.00002 7.82318 6.00002 7.99999V16C6.00002 16.1768 5.92978 16.3464 5.80476 16.4714C5.67973 16.5964 5.51016 16.6667 5.33335 16.6667C5.15654 16.6667 4.98697 16.5964 4.86195 16.4714C4.73693 16.3464 4.66669 16.1768 4.66669 16V7.99999C4.66669 7.82318 4.73693 7.65361 4.86195 7.52859C4.98697 7.40357 5.15654 7.33333 5.33335 7.33333ZM8.66669 7.33333C8.8435 7.33333 9.01307 7.40357 9.13809 7.52859C9.26312 7.65361 9.33335 7.82318 9.33335 7.99999V16C9.33335 16.1768 9.26312 16.3464 9.13809 16.4714C9.01307 16.5964 8.8435 16.6667 8.66669 16.6667C8.48988 16.6667 8.32031 16.5964 8.19528 16.4714C8.07026 16.3464 8.00002 16.1768 8.00002 16V7.99999C8.00002 7.82318 8.07026 7.65361 8.19528 7.52859C8.32031 7.40357 8.48988 7.33333 8.66669 7.33333ZM12.6667 7.99999C12.6667 7.82318 12.5964 7.65361 12.4714 7.52859C12.3464 7.40357 12.1768 7.33333 12 7.33333C11.8232 7.33333 11.6536 7.40357 11.5286 7.52859C11.4036 7.65361 11.3334 7.82318 11.3334 7.99999V16C11.3334 16.1768 11.4036 16.3464 11.5286 16.4714C11.6536 16.5964 11.8232 16.6667 12 16.6667C12.1768 16.6667 12.3464 16.5964 12.4714 16.4714C12.5964 16.3464 12.6667 16.1768 12.6667 16V7.99999Z" fill="#E64322"/>
<path fill-rule="evenodd" clip-rule="evenodd" d="M17.3333 4C17.3333 4.35362 17.1929 4.69276 16.9428 4.94281C16.6928 5.19286 16.3536 5.33333 16 5.33333H15.3333V17.3333C15.3333 18.0406 15.0524 18.7189 14.5523 19.219C14.0522 19.719 13.3739 20 12.6667 20H4.66667C3.95942 20 3.28115 19.719 2.78105 19.219C2.28095 18.7189 2 18.0406 2 17.3333V5.33333H1.33333C0.979711 5.33333 0.640573 5.19286 0.390524 4.94281C0.140476 4.69276 0 4.35362 0 4V2.66667C0 2.31304 0.140476 1.97391 0.390524 1.72386C0.640573 1.47381 0.979711 1.33333 1.33333 1.33333H6C6 0.979711 6.14048 0.640573 6.39052 0.390524C6.64057 0.140476 6.97971 0 7.33333 0L10 0C10.3536 0 10.6928 0.140476 10.9428 0.390524C11.1929 0.640573 11.3333 0.979711 11.3333 1.33333H16C16.3536 1.33333 16.6928 1.47381 16.9428 1.72386C17.1929 1.97391 17.3333 2.31304 17.3333 2.66667V4ZM3.49067 5.33333L3.33333 5.412V17.3333C3.33333 17.687 3.47381 18.0261 3.72386 18.2761C3.97391 18.5262 4.31305 18.6667 4.66667 18.6667H12.6667C13.0203 18.6667 13.3594 18.5262 13.6095 18.2761C13.8595 18.0261 14 17.687 14 17.3333V5.412L13.8427 5.33333H3.49067ZM1.33333 4V2.66667H16V4H1.33333Z" fill="#E64322"/>
</svg>
